<?xml version="1.0" ?><svg viewBox="0 0 64 64" xmlns="http://www.w3.org/2000/svg"><g data-name="Layer 26" id="Layer_26"><path d="M2,7H59V47l-5,9H8a6,6,0,0,1-6-6Z" style="fill:#428c1c"/><path d="M12,2H8A6,6,0,0,0,2,8H2V50H2a6,6,0,0,1,6-6h4Z" style="fill:#785349"/><path d="M32.04,56H8L6.727,53.432a4.927,4.927,0,0,1,1.938-6.446h0a4.92,4.92,0,0,1,2.477-.669h3.622V27.164L31.513,38.51Z" style="fill:#50a022"/><polygon points="12 28 21.03 32.86 13 56 18 56 21.47 46 30 46 31 42 22.86 42 29.1 24 44 24 44 31 48 31 48 18 59 18 59 14 48 14 48 7 44 7 44 20 30.49 20 35 7 30 7 22.49 28.65 12 23 12 28" style="fill:#f9cb5d"/><rect height="7" style="fill:#0059be" width="11" x="48" y="7"/><polygon points="12 7 12 23 22.49 28.65 30 7 12 7" style="fill:#0059be"/><polygon points="21.47 46 30 46 36.945 56 18 56 21.47 46" style="fill:#0059be"/><polygon points="29.1 24 22.86 42 31 42 44 31 44 24 29.1 24" style="fill:#0059be"/><circle cx="45" cy="45" r="17" style="fill:#e73844"/><polygon points="14.764 29.487 14.764 24.488 12 23 12 28 14.764 29.487" style="fill:#a57f32"/><polygon points="14.764 24.488 14.764 7 12 7 12 23 14.764 24.488" style="fill:#004180"/><path d="M6.445,2.211A6,6,0,0,0,2,8V50a6,6,0,0,1,4.445-5.789Z" style="fill:#6b4137"/><path d="M45,28a16.918,16.918,0,0,0-11.04,4.088A16.988,16.988,0,0,0,60.04,52.912,16.99,16.99,0,0,0,45,28Z" style="fill:#ff4d55"/><polygon points="38 38 38 55 42 55 42 42 49 42 49 45 56 40 49 35 49 38 38 38" style="fill:#fff"/></g></svg>